<svg width="35" height="35" viewBox="0 0 35 35" fill="none" xmlns="http://www.w3.org/2000/svg">
<g filter="url(#filter0_d_8_55)">
<path d="M17.5 0C10.0446 0 4 6.13927 4 13.7114C4 20.1363 8.356 25.5123 14.2285 27C14.1655 26.8149 14.125 26.6001 14.125 26.3339V23.9904C13.5771 23.9904 12.6591 23.9904 12.4285 23.9904C11.5049 23.9904 10.6836 23.587 10.2854 22.8375C9.84325 22.0045 9.76675 20.7305 8.671 19.9512C8.34587 19.6918 8.59337 19.3959 8.968 19.4359C9.65987 19.6347 10.2336 20.1169 10.7736 20.8322C11.3114 21.5486 11.5645 21.7108 12.5691 21.7108C13.0562 21.7108 13.7852 21.6823 14.4715 21.5726C14.8405 20.6208 15.4784 19.7444 16.258 19.3308C11.7625 18.8612 9.61713 16.5896 9.61713 13.5057C9.61713 12.178 10.174 10.8937 11.1201 9.81164C10.8096 8.73758 10.4193 6.54719 11.2394 5.71308C13.2621 5.71308 14.485 7.04537 14.7786 7.40529C15.7866 7.05451 16.8936 6.85569 18.0569 6.85569C19.2224 6.85569 20.3339 7.05451 21.3441 7.40758C21.6344 7.04994 22.8584 5.71308 24.8856 5.71308C25.7091 6.54833 25.3142 8.74786 25.0004 9.81964C25.9409 10.8994 26.4944 12.1803 26.4944 13.5057C26.4944 16.5873 24.3524 18.8577 19.8636 19.3296C21.0989 19.9843 22 21.824 22 23.2099V26.3339C22 26.4527 21.9741 26.5384 21.9606 26.6401C27.2211 24.7673 31 19.6941 31 13.7114C31 6.13927 24.9554 0 17.5 0Z" fill="#FAFAFA"/>
</g>
<defs>
<filter id="filter0_d_8_55" x="0" y="0" width="35" height="35" filterUnits="userSpaceOnUse" color-interpolation-filters="sRGB">
<feFlood flood-opacity="0" result="BackgroundImageFix"/>
<feColorMatrix in="SourceAlpha" type="matrix" values="0 0 0 0 0 0 0 0 0 0 0 0 0 0 0 0 0 0 127 0" result="hardAlpha"/>
<feOffset dy="4"/>
<feGaussianBlur stdDeviation="2"/>
<feComposite in2="hardAlpha" operator="out"/>
<feColorMatrix type="matrix" values="0 0 0 0 0 0 0 0 0 0 0 0 0 0 0 0 0 0 0.25 0"/>
<feBlend mode="normal" in2="BackgroundImageFix" result="effect1_dropShadow_8_55"/>
<feBlend mode="normal" in="SourceGraphic" in2="effect1_dropShadow_8_55" result="shape"/>
</filter>
</defs>
</svg>
