<svg width="20" height="20" viewBox="0 0 20 20" fill="none" xmlns="http://www.w3.org/2000/svg">
<path d="M15 17.2916H5.00004C4.39225 17.2916 3.80936 17.0502 3.37959 16.6204C2.94982 16.1906 2.70837 15.6077 2.70837 15V4.99998C2.70837 4.39219 2.94982 3.8093 3.37959 3.37953C3.80936 2.94975 4.39225 2.70831 5.00004 2.70831H10C10.1658 2.70831 10.3248 2.77416 10.442 2.89137C10.5592 3.00858 10.625 3.16755 10.625 3.33331C10.625 3.49907 10.5592 3.65805 10.442 3.77525C10.3248 3.89246 10.1658 3.95831 10 3.95831H5.00004C4.72377 3.95831 4.45882 4.06806 4.26347 4.26341C4.06812 4.45876 3.95837 4.72371 3.95837 4.99998V15C3.95837 15.2762 4.06812 15.5412 4.26347 15.7366C4.45882 15.9319 4.72377 16.0416 5.00004 16.0416H15C15.2763 16.0416 15.5413 15.9319 15.7366 15.7366C15.932 15.5412 16.0417 15.2762 16.0417 15V9.99998C16.0417 9.83423 16.1075 9.67523 16.2248 9.55806C16.342 9.44081 16.501 9.37498 16.6667 9.37498C16.8325 9.37498 16.9915 9.44081 17.1086 9.55806C17.2259 9.67523 17.2917 9.83423 17.2917 9.99998V15C17.2917 15.6077 17.0503 16.1906 16.6205 16.6204C16.1907 17.0502 15.6078 17.2916 15 17.2916Z" fill="#FFF6F6" fill-opacity="0.5"/>
<path d="M16.6667 7.29165C16.5016 7.28949 16.3439 7.22295 16.2271 7.1062C16.1104 6.98945 16.0439 6.83174 16.0417 6.66665V3.95831H13.3334C13.1676 3.95831 13.0086 3.89246 12.8915 3.77525C12.7742 3.65805 12.7084 3.49907 12.7084 3.33331C12.7084 3.16755 12.7742 3.00858 12.8915 2.89137C13.0086 2.77416 13.1676 2.70831 13.3334 2.70831H16.6667C16.8318 2.71047 16.9895 2.77701 17.1063 2.89375C17.223 3.0105 17.2895 3.16822 17.2917 3.33331V6.66665C17.2895 6.83174 17.223 6.98945 17.1063 7.1062C16.9895 7.22295 16.8318 7.28949 16.6667 7.29165Z" fill="white" fill-opacity="0.5"/>
<path d="M11.25 9.37503C11.0893 9.3627 10.9397 9.28795 10.8334 9.1667C10.7309 9.05211 10.6742 8.90378 10.6742 8.75003C10.6742 8.59628 10.7309 8.44795 10.8334 8.33336L16.25 2.9167C16.3073 2.85529 16.3763 2.80604 16.4529 2.77188C16.5296 2.73772 16.6124 2.71935 16.6963 2.71787C16.7802 2.71639 16.8635 2.73183 16.9414 2.76326C17.0192 2.7947 17.0899 2.84148 17.1492 2.90083C17.2086 2.96018 17.2554 3.03087 17.2868 3.1087C17.3182 3.18652 17.3337 3.26988 17.3322 3.3538C17.3307 3.43772 17.3124 3.52048 17.2782 3.59715C17.244 3.67381 17.1948 3.74281 17.1334 3.80003L11.6667 9.1667C11.5604 9.28795 11.4108 9.3627 11.25 9.37503Z" fill="white" fill-opacity="0.5"/>
</svg>
