<svg width="47" height="26" viewBox="0 0 47 26" fill="none" xmlns="http://www.w3.org/2000/svg">
<path d="M24.4782 3.80761C22.4728 1.98953 19.9179 0.751399 17.1364 0.249791C14.3549 -0.251817 11.4718 0.00562723 8.85169 0.989567C6.23158 1.97351 3.99214 3.63975 2.41655 5.77759C0.840966 7.91543 -4.28221e-07 10.4288 0 13C4.28222e-07 15.5712 0.840967 18.0846 2.41656 20.2224C3.99214 22.3603 6.23159 24.0265 8.85169 25.0104C11.4718 25.9944 14.3549 26.2518 17.1364 25.7502C19.9179 25.2486 22.4728 24.0105 24.4782 22.1924L21.3362 19.3438C19.9523 20.5985 18.1891 21.4529 16.2695 21.7991C14.35 22.1453 12.3603 21.9676 10.5521 21.2886C8.74395 20.6095 7.19848 19.4596 6.11114 17.9843C5.02381 16.5089 4.44344 14.7744 4.44344 13C4.44344 11.2256 5.02381 9.49106 6.11114 8.01571C7.19848 6.54036 8.74395 5.39046 10.5521 4.71143C12.3603 4.0324 14.35 3.85473 16.2695 4.2009C18.1891 4.54706 19.9523 5.40152 21.3362 6.6562L24.4782 3.80761Z" fill="#D9D9D9"/>
<rect x="27.0847" y="22.8485" width="19.9153" height="3.15152" fill="#514E99"/>
</svg>
