<svg width="27" height="27" viewBox="0 0 27 27" fill="none" xmlns="http://www.w3.org/2000/svg">
<path d="M15.7089 0C7.02861 0 0 6.04487 0 13.5C0 20.9551 7.02861 27 15.7089 27C19.9683 27 23.827 25.5415 26.6595 23.179C27.0109 22.8837 27.1023 22.4257 26.8774 22.052C26.6525 21.6783 26.1675 21.4674 25.6825 21.5397C24.9937 21.6422 24.2909 21.6964 23.5669 21.6964C16.7562 21.6964 11.2317 16.9473 11.2317 11.0893C11.2317 7.12366 13.762 3.67031 17.5083 1.85022C17.937 1.63929 18.1549 1.21741 18.0495 0.807589C17.944 0.397768 17.5364 0.0904019 17.0444 0.0542412C16.6016 0.0241072 16.1588 0.00602669 15.7089 0.00602669V0Z" fill="#FAFAFA"/>
</svg>
